<svg width="108" height="98" viewBox="0 0 108 98" fill="none" xmlns="http://www.w3.org/2000/svg">
<g filter="url(#filter0_d_755_15562)">
<path fill-rule="evenodd" clip-rule="evenodd" d="M65.7109 55.6585L63.7928 58.9893C63.2149 59.9927 62.1452 60.6111 60.9874 60.6111H46.2932C45.1353 60.6111 44.0656 59.9927 43.4877 58.9893L41.5694 55.6585H65.7109ZM71.0809 46.3343L67.6987 52.2069H39.5816L36.1996 46.3343H71.0809ZM67.823 37.2163L71.0863 42.8828H36.1942L39.4575 37.2163H67.823ZM60.9874 28.5967C62.1452 28.5967 63.2149 29.2151 63.7928 30.2184L65.8352 33.7647H41.4453L43.4877 30.2184C44.0656 29.2151 45.1353 28.5967 46.2932 28.5967H60.9874Z" fill="#00435B"/>
<path d="M24.9074 27.0512C23.2796 19.1582 22.9303 13.1044 23.9824 8.7085C24.6082 6.09406 25.7523 3.96123 27.4919 2.42244C29.3285 0.797871 31.6505 0.000693963 34.2596 0.000693963C38.5638 0.000693963 43.0886 1.96346 47.9241 5.69219C49.8964 7.21307 51.9434 9.04625 54.0693 11.1928C54.2385 10.9749 54.4298 10.7695 54.6429 10.5796C60.6531 5.22356 65.7133 1.89581 70.0413 0.612729C72.6147 -0.15019 75.0308 -0.222874 77.231 0.517566C79.5535 1.29915 81.404 2.91479 82.7096 5.1778C84.8644 8.91257 85.4326 13.8201 84.6293 19.8796C84.3018 22.3495 83.742 25.04 82.9511 27.9551C83.2495 27.9912 83.5486 28.0573 83.8448 28.1555C91.4705 30.6825 96.8703 33.4001 100.139 36.5057C102.085 38.3535 103.355 40.4107 103.814 42.6878C104.299 45.0913 103.826 47.5021 102.522 49.7634C100.371 53.4928 96.4167 56.4341 90.7829 58.7639C88.5208 59.6993 85.9614 60.5465 83.1017 61.3085C83.2322 61.6031 83.3334 61.916 83.4011 62.2442C85.0289 70.1372 85.3782 76.191 84.326 80.5869C83.7003 83.2014 82.5562 85.3342 80.8166 86.873C78.98 88.4975 76.6579 89.2947 74.0489 89.2947C69.7447 89.2947 65.2199 87.332 60.3844 83.6032C58.3911 82.0662 56.3215 80.2101 54.1713 78.034C53.95 78.3801 53.6784 78.7018 53.3571 78.988C47.3469 84.344 42.2867 87.6718 37.9587 88.9549C35.3853 89.7178 32.9692 89.7905 30.769 89.05C28.4465 88.2685 26.596 86.6528 25.2904 84.3898C23.1356 80.655 22.5674 75.7475 23.3707 69.688C23.71 67.1288 24.2987 64.3328 25.1356 61.2955C24.8085 61.2623 24.48 61.1932 24.1552 61.0855C16.5295 58.5585 11.1297 55.8409 7.86052 52.7352C5.91544 50.8875 4.64528 48.8303 4.18612 46.5532C3.70149 44.1497 4.17405 41.7389 5.47813 39.4775C7.62884 35.7482 11.5833 32.8069 17.2171 30.4771C19.5466 29.5138 22.1914 28.644 25.1547 27.8646C25.0491 27.6061 24.9658 27.3344 24.9074 27.0512Z" fill="#002B3B"/>
<path fill-rule="evenodd" clip-rule="evenodd" d="M44.4917 24.5367C48.4446 24.2221 52.519 24.0832 56.7148 24.1199C57.5094 24.1269 58.1592 23.4883 58.1662 22.6937C58.1691 22.359 58.0553 22.0338 57.8443 21.774C48.2944 10.0156 40.4307 4.13635 34.2534 4.13635C27.876 4.13635 26.0566 11.1662 28.7953 25.226C28.9454 25.9966 29.6856 26.5046 30.4587 26.3676C35.3344 25.5035 40.0121 24.8932 44.4917 24.5367Z" fill="#FF4154"/>
<path fill-rule="evenodd" clip-rule="evenodd" d="M66.6819 26.472C68.9647 29.7616 71.1557 33.2451 73.2548 36.9228C73.6487 37.613 74.5275 37.8531 75.2177 37.4592C75.5071 37.294 75.7302 37.0335 75.8489 36.7222C81.2509 22.5528 82.3862 12.781 79.2548 7.40683C76.0234 1.86104 68.9826 3.77863 58.1322 13.1596C57.5357 13.6754 57.4654 14.5753 57.9748 15.1773C61.1986 18.9881 64.1009 22.753 66.6819 26.472Z" fill="#FF4154"/>
<path fill-rule="evenodd" clip-rule="evenodd" d="M76.2631 46.2673C74.5546 49.8581 72.6342 53.467 70.5019 57.0941C70.0992 57.7791 70.3281 58.6609 71.0131 59.0637C71.3031 59.2342 71.6438 59.2976 71.9757 59.2431C86.8629 56.7953 95.8526 52.8885 98.9449 47.5227C102.139 41.9809 97.0027 36.9016 83.5372 32.2847C82.7954 32.0303 81.9866 32.4169 81.7184 33.1538C80.0193 37.8237 78.2008 42.1949 76.2631 46.2673Z" fill="#FF4154"/>
<path fill-rule="evenodd" clip-rule="evenodd" d="M64.0479 64.8511C60.0949 65.1657 56.0206 65.3047 51.8248 65.2679C51.0301 65.2609 50.3803 65.8995 50.3734 66.6941C50.3704 67.0288 50.4843 67.354 50.6953 67.6138C60.2452 79.3722 68.1088 85.2515 74.2861 85.2515C80.6636 85.2515 82.4829 78.2216 79.7443 64.1619C79.5941 63.3912 78.854 62.8832 78.0809 63.0202C73.2051 63.8843 68.5274 64.4946 64.0479 64.8511Z" fill="#FF4154"/>
<path fill-rule="evenodd" clip-rule="evenodd" d="M41.3182 63.0956C39.0354 59.8061 36.8444 56.3225 34.7453 52.6448C34.3514 51.9546 33.4726 51.7145 32.7824 52.1084C32.493 52.2736 32.2699 52.5341 32.1512 52.8455C26.7491 67.0148 25.6138 76.7866 28.7453 82.1608C31.9767 87.7066 39.0175 85.789 49.8678 76.408C50.4644 75.8923 50.5346 74.9924 50.0253 74.3903C46.8015 70.5795 43.8991 66.8146 41.3182 63.0956Z" fill="#FF4154"/>
<path fill-rule="evenodd" clip-rule="evenodd" d="M31.7369 42.7608C33.4455 39.17 35.3659 35.5611 37.4981 31.934C37.9008 31.249 37.672 30.3672 36.9869 29.9645C36.6969 29.794 36.3563 29.7305 36.0243 29.7851C21.1371 32.2328 12.1474 36.1396 9.05511 41.5054C5.8614 47.0472 10.9973 52.1265 24.4628 56.7434C25.2046 56.9978 26.0135 56.6113 26.2816 55.8743C27.9808 51.2044 29.7992 46.8332 31.7369 42.7608Z" fill="#FF4154"/>
<path fill-rule="evenodd" clip-rule="evenodd" d="M47.4745 28.7766H59.8088C61.6126 28.7766 63.2787 29.7414 64.1766 31.3059L70.3698 42.0973C71.2607 43.6496 71.2607 45.5583 70.3698 47.1106L64.1766 57.902C63.2787 59.4665 61.6126 60.4313 59.8088 60.4313H47.4745C45.6706 60.4313 44.0045 59.4665 43.1067 57.902L36.9135 47.1106C36.0225 45.5583 36.0225 43.6496 36.9135 42.0973L43.1067 31.3059C44.0045 29.7414 45.6706 28.7766 47.4745 28.7766ZM57.9289 32.0337C59.7337 32.0337 61.4005 32.9995 62.298 34.5653L66.6167 42.0996C67.5059 43.6508 67.5059 45.5571 66.6167 47.1083L62.298 54.6426C61.4005 56.2084 59.7337 57.1742 57.9289 57.1742H49.3543C47.5495 57.1742 45.8827 56.2084 44.9852 54.6426L40.6666 47.1083C39.7774 45.5571 39.7774 43.6508 40.6666 42.0996L44.9852 34.5653C45.8827 32.9995 47.5495 32.0337 49.3543 32.0337H57.9289ZM55.9027 35.5961H51.3805C49.5776 35.5961 47.9122 36.5599 47.014 38.1232L44.7319 42.0951C43.8393 43.6486 43.8393 45.5593 44.7319 47.1128L47.014 51.0847C47.9122 52.648 49.5776 53.6118 51.3805 53.6118H55.9027C57.7057 53.6118 59.3711 52.648 60.2693 51.0847L62.5514 47.1128C63.444 45.5593 63.444 43.6486 62.5514 42.0951L60.2693 38.1232C59.3711 36.5599 57.7057 35.5961 55.9027 35.5961ZM53.9517 39.0059C55.7533 39.0059 57.4176 39.9683 58.3164 41.5297L58.6399 42.0918C59.535 43.647 59.535 45.5609 58.6399 47.1161L58.3164 47.6782C57.4176 49.2396 55.7533 50.202 53.9517 50.202H53.3316C51.53 50.202 49.8656 49.2396 48.9669 47.6782L48.6434 47.1161C47.7483 45.5609 47.7483 43.647 48.6434 42.0918L48.9669 41.5297C49.8656 39.9683 51.53 39.0059 53.3316 39.0059H53.9517ZM53.6424 42.3647C52.8406 42.3647 52.1011 42.7915 51.7008 43.4843C51.3005 44.1771 51.3005 45.0308 51.7008 45.7236C52.1011 46.4164 52.8406 46.8432 53.6408 46.8432C54.4427 46.8432 55.1821 46.4164 55.5825 45.7236C55.9828 45.0308 55.9828 44.1771 55.5825 43.4843C55.1821 42.7915 54.4427 42.3647 53.6424 42.3647ZM35.4749 44.604H39.5064H35.4749Z" fill="#FFD94C"/>
</g>
<defs>
<filter id="filter0_d_755_15562" x="0" y="-0.000366211" width="108" height="97.5684" filterUnits="userSpaceOnUse" color-interpolation-filters="sRGB">
<feFlood flood-opacity="0" result="BackgroundImageFix"/>
<feColorMatrix in="SourceAlpha" type="matrix" values="0 0 0 0 0 0 0 0 0 0 0 0 0 0 0 0 0 0 127 0" result="hardAlpha"/>
<feOffset dy="4"/>
<feGaussianBlur stdDeviation="2"/>
<feComposite in2="hardAlpha" operator="out"/>
<feColorMatrix type="matrix" values="0 0 0 0 0 0 0 0 0 0 0 0 0 0 0 0 0 0 0.25 0"/>
<feBlend mode="normal" in2="BackgroundImageFix" result="effect1_dropShadow_755_15562"/>
<feBlend mode="normal" in="SourceGraphic" in2="effect1_dropShadow_755_15562" result="shape"/>
</filter>
</defs>
</svg>
